<?xml version="1.0" encoding="UTF-8"?>
<svg version="1.1" viewBox="0 0 2048 2048" width="601" height="601" xmlns="http://www.w3.org/2000/svg">
<path transform="translate(1241,285)" d="m0 0h20l16 3 12 4 16 7 12 8 12 11 9 10 6 9 9 17 4 15 2 12v21l-3 18-5 14-8 16-9 11-4 5-8 7-12 9-15 8-11 4-17 3h-30l-4-1 4 5 13 10 10 9 8 7 12 11 18 20 13 17 10 13 10 15 10 18 10 19 9 19 9 24 8 27 6 26 4 25 3 30v38l-3 31-5 31-7 28-6 20-13 33-8 16-11 21-12 19-12 17-13 16-9 11-12 12-5 6-8 7-7 7-11 9-13 11-27 18-13 8-23 12-28 13-16 4v2l20 2 31 8 27 9 21 9 21 11 15 10 14 10 14 12 15 14 7 7 7 8 10 12 13 18 12 20 12 24 9 25 6 20 5 27 3 25v33l-4 34-6 27-11 33-12 26-8 14-10 15-10 14-12 14-10 11-8 7-8 8-13 10-15 11-19 12-25 13-28 11-36 9-35 5-10 1h-27l-27-3-23-4-18-4-21-7-24-10-19-10-19-12-16-12-14-12-12-11-13-13-7-8-14-18-13-21-6-11-12-25-12-36-5-25-3-23-1-17v-16l1-19 4-29 7-28 8-23 9-20 12-22 10-15 13-18 10-11 7-8 13-13 8-7 15-12 15-10 17-10 22-11v-2l-39-3-27-4-21-5-30-9-22-9-18-8-16-8-15-8-18-12-10-7-12-9-14-11-13-12-8-7-12-12-7-8-13-15-14-19-10-15-8-13-12-21-13-29-10-27-7-24-6-29-4-27-1-17v-51l1-17 6-38 8-31 11-32 11-25 13-25 13-21 8-12 10-13 11-14 12-14 8-9 8-7 9-9 14-11 11-9 9-7 16-11 26-16 16-8 17-8 31-12 28-8 27-6 32-4 28-2h29l26 2 35 5 33 8 29 10 27 11 3 1-10-21-4-13-2-10v-36l5-19 8-16 7-11 15-16 15-11 16-8 16-5zm-265 254-31 4-31 7-23 8-19 8-20 11-28 19-10 9-8 7-13 12-9 10-14 18-10 15-11 19-10 21-10 28-6 25-3 18-2 22v19l2 25 6 32 12 36 8 18 12 22 12 17 10 13 12 14 17 17 14 11 15 11 16 10 27 14 26 10 21 6 22 4 17 2h51l29-4 23-6 23-8 20-9 27-15 17-12 17-14 13-12 7-7 9-11 11-13 12-18 10-18 10-21 6-16 7-26 4-20 3-27v-21l-3-32-5-24-7-24-8-20-9-19-13-22-13-18-8-9-7-8-21-21-10-8-12-9-21-13-17-9-25-11-29-9-24-5-26-3zm103 764-18 3-19 5-15 6-17 9-17 12-15 13-10 11-10 13-11 18-8 18-5 15-4 17-1 8v37l2 14 6 21 9 21 11 18 12 16 9 10 11 10 14 10 13 8 21 10 20 6 10 2 28 2h13l24-3 19-5 21-9 16-9 17-12 12-11 11-11 13-19 8-14 9-22 5-19 3-21v-19l-3-23-5-19-6-17-10-19-9-13-10-13-13-13-9-7-11-8-19-11-25-10-23-5-10-1z" fill="#6E32CC"/>
<path transform="translate(1136,1631)" d="m0 0h5l-4 2-21 4-26 1-18-2-5-1v-1h11l17 1h13l24-3z" fill="#FDFDFD"/>
<path transform="translate(724,518)" d="m0 0 2 1-29 29v-3l13-13z" fill="#FDFDFD"/>
<path transform="translate(1156,441)" d="m0 0 3 3 7 11v2l-4-1-2-2v-3l-4-8z" fill="#FDFDFD"/>
</svg>
